<svg width="91" height="92" viewBox="0 0 91 92" fill="none" xmlns="http://www.w3.org/2000/svg">
<path d="M57.7331 45.675C57.7331 40.0822 54.2772 35.3179 49.2967 33.5572V43.5C49.2967 45.675 47.7721 47.6429 45.5359 47.9536C42.9949 48.2643 40.7587 46.1929 40.7587 43.7072V33.5572C35.4733 35.4215 31.9158 40.8072 32.424 46.9179C32.8306 51.8893 36.1848 56.1358 40.7587 57.7929V70.8429H49.2967V57.7929C54.2772 56.0322 57.7331 51.2679 57.7331 45.675Z" fill="#6BCB77"/>
<path d="M90.2587 55.6179V36.3536H81.924C81.0092 32.8321 79.6879 29.4143 77.8583 26.4107L83.7536 20.4036L70.3368 6.62857L64.4415 12.6357C61.3922 10.7714 58.1396 9.425 54.6838 8.49286V0H35.6766V8.49286C32.2207 9.425 28.8665 10.7714 25.9189 12.6357L19.922 6.62857L6.50513 20.3L12.4004 26.3071C10.5708 29.4143 9.24949 32.7286 8.3347 36.25H0V55.6179H8.3347C9.24949 59.1393 10.5708 62.5571 12.4004 65.5607L6.50513 71.6714L19.922 85.3429L25.8172 79.3357C28.8665 81.2 32.1191 82.5464 35.5749 83.4786V91.9714H54.5821V83.4786C58.038 82.5464 61.3922 81.2 64.3398 79.3357L70.2351 85.3429L83.7536 71.6714L77.8583 65.6643C79.6879 62.5571 81.0092 59.2429 81.924 55.7214H90.2587V55.6179ZM45.1294 67.3214C33.5421 67.3214 24.191 57.7929 24.191 45.9857C24.191 34.1786 33.5421 24.65 45.1294 24.65C56.7166 24.65 66.0678 34.1786 66.0678 45.9857C66.0678 57.7929 56.7166 67.3214 45.1294 67.3214Z" fill="#4D96FF"/>
</svg>
