<svg width="74" height="81" viewBox="0 0 74 81" fill="none" xmlns="http://www.w3.org/2000/svg">
<path d="M11.507 22.599C12.1882 22.599 12.7403 21.9946 12.7403 21.249C12.7403 20.5034 12.1882 19.899 11.507 19.899C10.8258 19.899 10.2737 20.5034 10.2737 21.249C10.2737 21.9946 10.8258 22.599 11.507 22.599Z" fill="white"/>
<path d="M19.7333 22.599C20.4145 22.599 20.9667 21.9946 20.9667 21.249C20.9667 20.5034 20.4145 19.899 19.7333 19.899C19.0522 19.899 18.5 20.5034 18.5 21.249C18.5 21.9946 19.0522 22.599 19.7333 22.599Z" fill="white"/>
<path d="M15.6263 22.599C16.3075 22.599 16.8597 21.9946 16.8597 21.249C16.8597 20.5034 16.3075 19.899 15.6263 19.899C14.9452 19.899 14.393 20.5034 14.393 21.249C14.393 21.9946 14.9452 22.599 15.6263 22.599Z" fill="white"/>
<path d="M24.6667 40.8375L28.3667 36.7875C28.5989 36.5333 28.7294 36.1885 28.7294 35.829C28.7294 35.4695 28.5989 35.1247 28.3667 34.8705C28.1344 34.6163 27.8194 34.4735 27.491 34.4735C27.1626 34.4735 26.8476 34.6163 26.6153 34.8705L22.0273 39.906C21.7976 40.1589 21.6687 40.5011 21.6687 40.8577C21.6687 41.2144 21.7976 41.5566 22.0273 41.8095L26.6153 46.845C26.73 46.9715 26.8664 47.072 27.0167 47.1405C27.167 47.209 27.3282 47.2443 27.491 47.2443C27.6538 47.2443 27.815 47.209 27.9653 47.1405C28.1156 47.072 28.252 46.9715 28.3667 46.845C28.5964 46.5921 28.7253 46.2499 28.7253 45.8932C28.7253 45.5366 28.5964 45.1944 28.3667 44.9415L24.6667 40.8375Z" fill="white"/>
<path d="M42.328 46.818C42.5591 47.0694 42.8717 47.2106 43.1975 47.2106C43.5233 47.2106 43.8359 47.0694 44.067 46.818L48.6673 41.85C48.897 41.5971 49.026 41.2549 49.026 40.8982C49.026 40.5416 48.897 40.1994 48.6673 39.9465L44.067 34.911C43.8348 34.6586 43.5204 34.5175 43.1931 34.5188C42.8659 34.52 42.5524 34.6635 42.3218 34.9177C42.0912 35.172 41.9623 35.516 41.9635 35.8743C41.9646 36.2325 42.0958 36.5756 42.328 36.828L46.028 40.878L42.328 44.928C42.102 45.1804 41.9754 45.5196 41.9754 45.873C41.9754 46.2264 42.102 46.5656 42.328 46.818Z" fill="white"/>
<path d="M38.2333 35.3025C38.0926 35.2132 37.9371 35.1553 37.7758 35.1321C37.6145 35.1089 37.4506 35.1209 37.2935 35.1673C37.1365 35.2138 36.9894 35.2937 36.8607 35.4027C36.732 35.5116 36.6242 35.6473 36.5437 35.802L31.9927 44.55C31.9034 44.7037 31.8435 44.8755 31.8165 45.0551C31.7895 45.2348 31.796 45.4186 31.8356 45.5954C31.8752 45.7723 31.947 45.9385 32.0468 46.0842C32.1466 46.2298 32.2723 46.3519 32.4163 46.443C32.5603 46.5341 32.7197 46.5924 32.8848 46.6144C33.0499 46.6363 33.2174 46.6215 33.3771 46.5708C33.5369 46.5201 33.6856 46.4345 33.8144 46.3192C33.9431 46.2039 34.0492 46.0613 34.1263 45.9L38.7267 37.1925C38.8127 37.0343 38.8683 36.8585 38.89 36.676C38.9117 36.4934 38.8991 36.3079 38.8529 36.1309C38.8067 35.9539 38.7279 35.7891 38.6213 35.6466C38.5148 35.5041 38.3827 35.387 38.2333 35.3025Z" fill="white"/>
<path d="M68.894 54C68.8213 53.9994 68.7504 53.9745 68.6909 53.9287C68.6314 53.8829 68.5861 53.8183 68.561 53.7435C68.0702 52.3304 67.3748 51.013 66.5013 49.842C66.46 49.7765 66.4378 49.6988 66.4378 49.6193C66.4378 49.5397 66.46 49.462 66.5013 49.3965C66.877 48.6839 66.9788 47.8372 66.7846 47.0424C66.5904 46.2476 66.1159 45.5697 65.4653 45.1575L64.5403 44.55V19.899C64.5403 18.8249 64.1505 17.7947 63.4566 17.0352C62.7627 16.2757 61.8216 15.849 60.8403 15.849H9.86667C8.88537 15.849 7.94426 16.2757 7.25037 17.0352C6.55649 17.7947 6.16667 18.8249 6.16667 19.899V54.108C6.16991 54.9411 6.47371 55.7392 7.01193 56.3283C7.55014 56.9174 8.27919 57.2499 9.04033 57.2535H25.9L24.6667 62.2485H23.0263C21.8251 62.2494 20.6592 62.6936 19.717 63.5093C18.7748 64.325 18.1114 65.4646 17.834 66.744H14.8C14.4729 66.744 14.1592 66.8862 13.9279 67.1394C13.6966 67.3926 13.5667 67.736 13.5667 68.094C13.5667 68.452 13.6966 68.7954 13.9279 69.0486C14.1592 69.3018 14.4729 69.444 14.8 69.444H46.213C46.1921 69.7665 46.2213 70.0906 46.2993 70.4025C46.3918 70.7985 46.5564 71.17 46.7831 71.4948C47.0099 71.8195 47.2942 72.0909 47.619 72.2925L50.2213 73.9395C50.5444 74.1425 50.9009 74.2739 51.2704 74.3261C51.6399 74.3783 52.0152 74.3504 52.3748 74.2438C52.7344 74.1372 53.0714 73.9542 53.3663 73.7051C53.6613 73.456 53.9086 73.1457 54.094 72.792C54.134 72.7231 54.1914 72.6686 54.2594 72.635C54.3273 72.6014 54.4027 72.5903 54.4763 72.603C55.8312 72.8595 57.2162 72.8595 58.571 72.603C58.646 72.5897 58.723 72.602 58.7914 72.6382C58.8598 72.6744 58.9163 72.7329 58.9533 72.8055C59.2047 73.2766 59.5651 73.6669 59.9981 73.9371C60.4311 74.2073 60.9216 74.3478 61.42 74.3445C61.9173 74.3498 62.4068 74.21 62.8383 73.9395L65.4407 72.2925C65.7638 72.0885 66.0467 71.8164 66.2732 71.492C66.4997 71.1676 66.6653 70.7973 66.7603 70.4025C66.8586 70.01 66.8841 69.6 66.8353 69.1966C66.7866 68.7932 66.6647 68.4045 66.4767 68.0535C66.4342 67.986 66.4115 67.906 66.4115 67.824C66.4115 67.742 66.4342 67.662 66.4767 67.5945C67.3474 66.4264 68.0427 65.1139 68.5363 63.7065C68.5599 63.6306 68.6048 63.5649 68.6646 63.5188C68.7245 63.4727 68.7962 63.4486 68.8693 63.45C69.6207 63.4465 70.3403 63.1182 70.8716 62.5366C71.4029 61.9551 71.7028 61.1674 71.706 60.345V57.051C71.6932 56.2415 71.392 55.4696 70.8667 54.8997C70.3415 54.3297 69.6336 54.0069 68.894 54ZM8.63333 19.899C8.63333 19.541 8.76327 19.1976 8.99457 18.9444C9.22586 18.6912 9.53957 18.549 9.86667 18.549H60.8403C61.1674 18.549 61.4811 18.6912 61.7124 18.9444C61.9437 19.1976 62.0737 19.541 62.0737 19.899V23.949H8.63333V19.899ZM9.04033 54.5535C8.98688 54.5535 8.93396 54.542 8.88458 54.5196C8.8352 54.4972 8.79033 54.4644 8.75254 54.423C8.71475 54.3816 8.68477 54.3325 8.66431 54.2785C8.64386 54.2244 8.63333 54.1665 8.63333 54.108V26.649H62.0737V43.2C61.49 43.0303 60.8721 43.0699 60.3105 43.3129C59.7489 43.5558 59.2733 43.9894 58.9533 44.55C58.9149 44.6166 58.8591 44.669 58.7931 44.7003C58.7271 44.7316 58.654 44.7404 58.5833 44.7255C57.2275 44.4824 55.8445 44.4824 54.4887 44.7255C54.418 44.7424 54.3442 44.7345 54.2778 44.703C54.2115 44.6715 54.1558 44.618 54.1187 44.55C53.9334 44.1961 53.686 43.8858 53.3907 43.637C53.0954 43.3883 52.758 43.2059 52.398 43.1005C52.038 42.9951 51.6626 42.9687 51.2932 43.0229C50.9239 43.077 50.568 43.2106 50.246 43.416L47.6437 45.063C47.3197 45.2625 47.0358 45.5315 46.809 45.854C46.5823 46.1764 46.4173 46.5456 46.324 46.9395C46.1268 47.7354 46.2243 48.5843 46.5953 49.302C46.6403 49.3658 46.6648 49.4441 46.6648 49.5248C46.6648 49.6054 46.6403 49.6837 46.5953 49.7475C45.7219 50.9185 45.0264 52.2359 44.5357 53.649C44.5106 53.7238 44.4653 53.7884 44.4058 53.8342C44.3463 53.88 44.2754 53.9049 44.2027 53.9055C43.5986 53.9064 43.0107 54.1194 42.5253 54.513L9.04033 54.5535ZM41.9333 62.2485H27.1333L28.3667 57.2535H41.3167V60.345C41.3246 61.0366 41.5414 61.7059 41.9333 62.2485ZM23.0387 64.9485H44.992C45.2739 65.5709 45.5954 66.1709 45.954 66.744H20.4363C20.6692 66.2076 21.036 65.7544 21.4943 65.4366C21.9527 65.1189 22.4838 64.9496 23.0263 64.9485H23.0387ZM69.264 60.345C69.264 60.4524 69.225 60.5554 69.1556 60.6314C69.0862 60.7073 68.9921 60.75 68.894 60.75C68.3195 60.7516 67.7589 60.9432 67.2857 61.2998C66.8124 61.6563 66.4488 62.1612 66.2423 62.748C65.8481 63.8862 65.2902 64.9481 64.5897 65.8935C64.2285 66.3819 64.0105 66.9783 63.9642 67.6047C63.918 68.231 64.0457 68.858 64.3307 69.4035C64.3505 69.45 64.3608 69.5007 64.3608 69.552C64.3608 69.6033 64.3505 69.654 64.3307 69.7005C64.3199 69.7541 64.299 69.8047 64.2693 69.8488C64.2395 69.893 64.2016 69.9299 64.158 69.957L61.5927 71.55C61.5498 71.5761 61.5027 71.5926 61.454 71.5986C61.4052 71.6045 61.3559 71.5998 61.3089 71.5848C61.2618 71.5697 61.218 71.5445 61.1799 71.5108C61.1418 71.477 61.1102 71.4352 61.087 71.388C60.7954 70.844 60.3599 70.4095 59.8381 70.142C59.3162 69.8744 58.7325 69.7864 58.164 69.8895C57.0783 70.0919 55.9691 70.0919 54.8833 69.8895C54.3135 69.7877 53.7289 69.8777 53.2069 70.1477C52.6849 70.4177 52.2502 70.855 51.9603 71.4015C51.9091 71.492 51.8283 71.5578 51.7344 71.5854C51.6404 71.6129 51.5404 71.6003 51.4547 71.55L48.8523 69.903C48.8087 69.8759 48.7708 69.839 48.7411 69.7948C48.7113 69.7507 48.6904 69.7001 48.6797 69.6465C48.6598 69.6 48.6496 69.5493 48.6496 69.498C48.6496 69.4467 48.6598 69.396 48.6797 69.3495C48.9613 68.8029 49.0871 68.1766 49.041 67.5511C48.9948 66.9256 48.7788 66.3295 48.4207 65.8395C47.7138 64.8965 47.1515 63.8342 46.7557 62.694C46.5488 62.1226 46.1904 61.6321 45.7266 61.2856C45.2628 60.9391 44.7148 60.7526 44.1533 60.75C44.0552 60.75 43.9611 60.7073 43.8917 60.6314C43.8223 60.5554 43.7833 60.4524 43.7833 60.345V57.051C43.7816 56.9973 43.79 56.9438 43.808 56.8938C43.826 56.8438 43.8532 56.7984 43.8879 56.7604C43.9226 56.7224 43.9641 56.6927 44.0097 56.673C44.0554 56.6533 44.1043 56.6441 44.1533 56.646C44.7261 56.6436 45.2848 56.4514 45.7559 56.0948C46.227 55.7382 46.5885 55.2338 46.7927 54.648C47.1857 53.5063 47.7483 52.4435 48.4577 51.5025C48.8158 51.0125 49.0318 50.4164 49.078 49.7909C49.1241 49.1654 48.9983 48.5391 48.7167 47.9925C48.6966 47.9437 48.6862 47.8908 48.6862 47.8373C48.6862 47.7837 48.6966 47.7308 48.7167 47.682C48.7267 47.6298 48.7474 47.5808 48.7774 47.5387C48.8073 47.4966 48.8456 47.4625 48.8893 47.439L51.4917 45.792C51.5522 45.7736 51.6162 45.7736 51.6767 45.792C51.7384 45.7929 51.7989 45.8106 51.8528 45.8436C51.9066 45.8766 51.9521 45.9238 51.985 45.981C52.2762 46.5262 52.7111 46.9623 53.2327 47.2322C53.7544 47.502 54.3383 47.5929 54.908 47.493C55.9937 47.2906 57.1029 47.2906 58.1887 47.493C58.7621 47.5778 59.3456 47.4711 59.8628 47.1868C60.3799 46.9026 60.8066 46.4541 61.087 45.9C61.1111 45.8555 61.1431 45.8166 61.181 45.7857C61.2189 45.7548 61.2621 45.7324 61.3079 45.7198C61.3538 45.7073 61.4015 45.7048 61.4483 45.7125C61.495 45.7203 61.5399 45.7381 61.5803 45.765L64.1827 47.412C64.2264 47.4355 64.2647 47.4696 64.2946 47.5117C64.3246 47.5538 64.3453 47.6028 64.3553 47.655C64.3754 47.7038 64.3858 47.7567 64.3858 47.8103C64.3858 47.8638 64.3754 47.9167 64.3553 47.9655C64.0715 48.509 63.9443 49.1337 63.9905 49.7576C64.0367 50.3816 64.2542 50.9757 64.6143 51.462C65.3151 52.4122 65.873 53.4785 66.267 54.621C66.4614 55.2177 66.8166 55.7358 67.2856 56.107C67.7546 56.4782 68.3154 56.6849 68.894 56.7C68.9431 56.6981 68.9919 56.7073 69.0376 56.727C69.0833 56.7467 69.1248 56.7764 69.1595 56.8144C69.1942 56.8524 69.2214 56.8978 69.2394 56.9478C69.2573 56.9978 69.2657 57.0513 69.264 57.105V60.345Z" fill="white"/>
<path d="M56.5237 52.569C55.4162 52.569 54.3336 52.9285 53.4128 53.6019C52.492 54.2754 51.7744 55.2326 51.3506 56.3525C50.9268 57.4725 50.8159 58.7048 51.0319 59.8937C51.248 61.0826 51.7813 62.1747 52.5643 63.0319C53.3474 63.889 54.3451 64.4727 55.4313 64.7092C56.5175 64.9457 57.6433 64.8243 58.6664 64.3605C59.6896 63.8966 60.5641 63.111 61.1793 62.1031C61.7946 61.0952 62.123 59.9102 62.123 58.698C62.123 57.0725 61.5331 55.5136 60.483 54.3641C59.4329 53.2147 58.0087 52.569 56.5237 52.569ZM56.5237 62.127C55.9041 62.127 55.2984 61.9259 54.7832 61.5491C54.2681 61.1723 53.8666 60.6368 53.6295 60.0102C53.3924 59.3837 53.3303 58.6942 53.4512 58.029C53.5721 57.3639 53.8704 56.7529 54.3085 56.2733C54.7466 55.7938 55.3048 55.4672 55.9125 55.3349C56.5202 55.2026 57.1501 55.2705 57.7225 55.53C58.2949 55.7896 58.7842 56.2291 59.1284 56.793C59.4726 57.3568 59.6563 58.0198 59.6563 58.698C59.6498 59.6027 59.3169 60.468 58.7301 61.1052C58.1433 61.7425 57.3502 62.1 56.5237 62.1V62.127Z" fill="white"/>
</svg>
