<svg width="74" height="81" viewBox="0 0 74 81" fill="none" xmlns="http://www.w3.org/2000/svg">
<path d="M26.7222 74.25C32.3956 74.25 37 69.21 37 63V51.75H26.7222C21.0489 51.75 16.4445 56.79 16.4445 63C16.4445 69.21 21.0489 74.25 26.7222 74.25Z" fill="#0ACF83"/>
<path d="M16.4445 40.5C16.4445 34.29 21.0489 29.25 26.7222 29.25H37V51.75H26.7222C21.0489 51.75 16.4445 46.71 16.4445 40.5Z" fill="#A259FF"/>
<path d="M16.4445 18C16.4445 11.79 21.0489 6.75 26.7222 6.75H37V29.25H26.7222C21.0489 29.25 16.4445 24.21 16.4445 18Z" fill="#F24E1E"/>
<path d="M37 6.75H47.2778C52.9511 6.75 57.5556 11.79 57.5556 18C57.5556 24.21 52.9511 29.25 47.2778 29.25H37V6.75Z" fill="#FF7262"/>
<path d="M57.5556 40.5C57.5556 46.71 52.9511 51.75 47.2778 51.75C41.6044 51.75 37 46.71 37 40.5C37 34.29 41.6044 29.25 47.2778 29.25C52.9511 29.25 57.5556 34.29 57.5556 40.5Z" fill="#1ABCFE"/>
</svg>
