<svg width="53" height="50" viewBox="0 0 53 50" fill="none" xmlns="http://www.w3.org/2000/svg">
<path fill-rule="evenodd" clip-rule="evenodd" d="M26.4983 0C11.865 0 0 11.4761 0 25.6328C0 36.9567 7.59083 46.5644 18.1239 49.955C19.4492 50.1889 19.8667 49.4294 19.8667 48.75C19.8667 48.1411 19.88 46.4394 19.8667 44.3003C12.4962 45.8497 10.9688 40.9241 10.9688 40.9241C9.76438 37.963 8.02819 37.1746 8.02819 37.1746C5.62272 35.5851 8.20877 35.6155 8.20877 35.6155C10.8677 35.7966 12.2693 38.2578 12.2693 38.2578C14.6333 42.1723 18.4701 41.0411 19.9794 40.3873C20.2212 38.7305 20.9071 37.6008 21.6642 36.9599C15.7797 36.3125 9.59374 34.1141 9.59374 24.2917C9.59374 21.4924 10.6258 19.2058 12.3206 17.4144C12.0473 16.767 11.1361 14.16 12.5807 10.63C12.5807 10.63 14.8056 9.941 19.8667 13.2595C21.9806 12.6906 24.2486 12.407 26.5017 12.3974C28.7531 12.407 31.0194 12.6906 33.1366 13.2595C38.1977 9.9426 40.4193 10.63 40.4193 10.63C41.8639 14.16 40.9544 16.767 40.6827 17.4144C42.3775 19.2058 43.4063 21.4924 43.4063 24.2917C43.4063 34.1397 37.2103 36.3061 31.306 36.9391C32.2569 37.7322 33.12 39.2705 33.12 41.6612C33.12 44.8659 33.12 47.9136 33.12 48.7564C33.12 49.4422 33.5475 50.2001 34.8927 49.9518C45.4158 46.5564 53 36.9535 53 25.6328C53 11.4761 41.135 0 26.4983 0Z" fill="#C6C3C3"/>
</svg>
