<svg width="36" height="38" viewBox="0 0 36 38" fill="none" xmlns="http://www.w3.org/2000/svg">
<path d="M14.6174 11.9276C14.4934 11.7967 14.2926 11.7967 14.1686 11.9276L12.2433 13.9594C12.1838 14.0223 12.1503 14.1073 12.1503 14.1963C12.1503 14.2853 12.1838 14.3704 12.2433 14.4332L17.8839 20.3868C17.9459 20.4522 18.0271 20.485 18.1083 20.485C18.1895 20.485 18.2708 20.4522 18.3327 20.3868L29.6057 8.48754C29.7297 8.35665 29.7297 8.1446 29.6057 8.01372L27.6808 5.98155C27.6213 5.91869 27.5407 5.88337 27.4564 5.88337C27.372 5.88337 27.2913 5.91876 27.2318 5.98155L18.1082 15.6123L14.6174 11.9276Z" fill="white"/>
<path d="M33.7129 15.8843L33.7124 15.8835C33.5506 15.37 33.255 14.938 32.8566 14.6346L28.107 11.0171L27.1975 11.9772L32.0556 15.6772L32.1135 15.7213C32.165 15.7606 32.204 15.8159 32.248 15.8652C32.2585 15.877 32.2702 15.8874 32.2803 15.8998C32.3251 16.0444 32.2781 16.2066 32.1497 16.2891L3.59308 34.6422C3.88273 34.7748 4.20108 34.85 4.53632 34.85H31.4634C32.7764 34.85 33.8447 33.7226 33.8447 32.3367V16.6726C33.8446 16.4242 33.8015 16.1664 33.7129 15.8843Z" fill="white"/>
<path d="M3.7519 15.8651C3.79571 15.816 3.83469 15.7608 3.88593 15.7216L17.3494 5.46711C17.7388 5.17062 18.2609 5.17062 18.6502 5.46711L23.3966 9.08214L24.3061 8.12202L19.3931 4.37999C18.5598 3.74511 17.44 3.74511 16.6066 4.37999L3.14282 14.6348C2.74555 14.9378 2.44968 15.3691 2.28746 15.8829L2.28689 15.8839C2.1985 16.1653 2.15546 16.4232 2.15546 16.6726V32.3367C2.15546 33.1009 2.48708 33.778 2.9985 34.2393L17.6699 24.8101L3.7519 15.8651Z" fill="white"/>
</svg>
