<svg width="57" height="54" viewBox="0 0 57 54" fill="none" xmlns="http://www.w3.org/2000/svg">
<path d="M28.3492 15.9047C21.3121 15.9047 15.4814 21.3333 15.4814 28.0952C15.4814 34.8571 21.2116 40.2857 28.3492 40.2857C35.4867 40.2857 41.2169 34.7619 41.2169 28.0952C41.2169 21.4285 35.3862 15.9047 28.3492 15.9047ZM28.3492 35.9047C23.8254 35.9047 20.1058 32.3809 20.1058 28.0952C20.1058 23.8095 23.8254 20.2857 28.3492 20.2857C32.873 20.2857 36.5926 23.8095 36.5926 28.0952C36.5926 32.3809 32.873 35.9047 28.3492 35.9047Z" fill="#C6C3C3"/>
<path d="M41.7195 18.3809C43.3296 18.3809 44.6349 17.1444 44.6349 15.619C44.6349 14.0937 43.3296 12.8571 41.7195 12.8571C40.1094 12.8571 38.8042 14.0937 38.8042 15.619C38.8042 17.1444 40.1094 18.3809 41.7195 18.3809Z" fill="#C6C3C3"/>
<path d="M49.2592 8.47617C46.6455 5.90474 42.9259 4.57141 38.7037 4.57141H17.9947C9.24866 4.57141 3.41797 10.0952 3.41797 18.3809V37.9047C3.41797 42 4.82538 45.5238 7.64019 48.0952C10.3545 50.5714 13.9735 51.8095 18.0952 51.8095H38.6031C42.9259 51.8095 46.5449 50.4762 49.1587 48.0952C51.873 45.619 53.2804 42.0952 53.2804 38V18.3809C53.2804 14.3809 51.873 10.9524 49.2592 8.47617ZM48.8571 38C48.8571 40.9524 47.7513 43.3333 45.9418 44.9524C44.1322 46.5714 41.619 47.4286 38.6031 47.4286H18.0952C15.0793 47.4286 12.5661 46.5714 10.7566 44.9524C8.94707 43.2381 8.04231 40.8571 8.04231 37.9047V18.3809C8.04231 15.5238 8.94707 13.1428 10.7566 11.4286C12.4656 9.80951 15.0793 8.95236 18.0952 8.95236H38.8042C41.8201 8.95236 44.3333 9.80951 46.1428 11.5238C47.8518 13.2381 48.8571 15.619 48.8571 18.3809V38Z" fill="#C6C3C3"/>
</svg>
