<svg width="67" height="65" viewBox="0 0 67 65" fill="none" xmlns="http://www.w3.org/2000/svg">
<path d="M22.3333 51.4583H13.9583V24.375H22.3333V51.4583ZM53.0416 51.4583H44.6666V36.9904C44.6666 33.2204 43.282 31.3435 40.5378 31.3435C38.3631 31.3435 36.984 32.3944 36.2916 34.4988C36.2916 37.9167 36.2916 51.4583 36.2916 51.4583H27.9166C27.9166 51.4583 28.0283 27.0833 27.9166 24.375H34.5273L35.0382 29.7917H35.2113C36.9281 27.0833 39.6724 25.2471 43.4355 25.2471C46.297 25.2471 48.6113 26.019 50.3784 27.9581C52.1567 29.9 53.0416 32.5054 53.0416 36.1644V51.4583Z" fill="#C6C3C3"/>
<path d="M18.1458 21.6667C20.5356 21.6667 22.4729 19.8478 22.4729 17.6042C22.4729 15.3605 20.5356 13.5417 18.1458 13.5417C15.756 13.5417 13.8187 15.3605 13.8187 17.6042C13.8187 19.8478 15.756 21.6667 18.1458 21.6667Z" fill="#C6C3C3"/>
</svg>
