<svg width="74" height="74" viewBox="0 0 74 74" fill="none" xmlns="http://www.w3.org/2000/svg">
<path fill-rule="evenodd" clip-rule="evenodd" d="M37.0002 0C57.443 0 74 16.6105 74 37C74 57.4424 57.443 74 37.0002 74C16.5578 74 0 57.4424 0 37C0 16.6105 16.5578 0 37.0002 0Z" fill="#FD8469"/>
<path fill-rule="evenodd" clip-rule="evenodd" d="M71.2849 23.1047C73.0421 27.4171 74 32.1013 74 37C74 57.4424 57.443 74 37.0002 74C36.3089 74 35.669 74 34.9777 73.9487L11.5535 55.8467C11.5535 49.8844 11.5006 43.1755 11.5006 37.2131C11.5006 36.4153 12.1382 35.7761 12.8847 35.7761C13.789 35.7761 14.6411 35.7761 15.4926 35.7761C15.4926 28.96 15.4926 22.0939 15.4926 15.2249L61.0648 14.746C61.3308 15.2248 71.0718 23.1047 71.2849 23.1047Z" fill="#E4775F"/>
<path fill-rule="evenodd" clip-rule="evenodd" d="M47.1158 52.8111H28.8547C28.1635 52.8111 27.6301 52.2807 27.6301 51.6417C27.6301 50.948 28.1635 50.4178 28.8547 50.4178H47.1158C47.7549 50.4178 48.3396 50.9482 48.3396 51.6417C48.3396 52.2808 47.7549 52.8111 47.1158 52.8111Z" fill="#324A5E"/>
<path d="M42.8564 44.0807H33.0604V50.4178H42.8564V44.0807Z" fill="#21313E"/>
<path d="M61.0648 14.7459H14.9071V46.5827H61.0648V14.7459Z" fill="#324A5E"/>
<path d="M57.8692 17.9432H18.1013V43.3886H57.8692V17.9432Z" fill="white"/>
<path fill-rule="evenodd" clip-rule="evenodd" d="M62.1799 37.5334H52.0654V53.4503H62.1799V37.5334ZM57.8162 54.6743C57.8162 54.2497 57.4973 53.931 57.1242 53.931C56.751 53.931 56.4321 54.2498 56.4321 54.6743C56.4321 55.0475 56.751 55.3664 57.1242 55.3664C57.4973 55.3664 57.8162 55.0475 57.8162 54.6743ZM55.4743 36.5225C55.4743 36.6282 55.5271 36.6811 55.6329 36.6811H58.614C58.667 36.6811 58.7728 36.6282 58.7728 36.5225C58.7728 36.4151 58.667 36.3622 58.614 36.3622H55.6329C55.5271 36.3624 55.4743 36.4153 55.4743 36.5225ZM63.1393 36.734V54.6743C63.1393 55.4207 62.5002 56.0599 61.7554 56.0599H52.4932C51.7467 56.0599 51.1091 55.4207 51.1091 54.6743V36.734C51.1091 35.9891 51.7467 35.3515 52.4932 35.3515H61.7554C62.5 35.3515 63.1393 35.9891 63.1393 36.734Z" fill="#253645"/>
<path d="M62.2871 37.3732H51.9582V53.6634H62.2871V37.3732Z" fill="white"/>
<path fill-rule="evenodd" clip-rule="evenodd" d="M57.1242 53.931C56.751 53.931 56.4321 54.2498 56.4321 54.6743C56.4321 55.0475 56.751 55.3664 57.1242 55.3664C57.4973 55.3664 57.8162 55.0475 57.8162 54.6743C57.8162 54.2497 57.4975 53.931 57.1242 53.931Z" fill="white"/>
<path fill-rule="evenodd" clip-rule="evenodd" d="M55.6328 36.6811H58.6138C58.6669 36.6811 58.7726 36.6282 58.7726 36.5225C58.7726 36.4151 58.6669 36.3622 58.6138 36.3622H55.6328C55.527 36.3622 55.4741 36.4151 55.4741 36.5225C55.4743 36.6282 55.5271 36.6811 55.6328 36.6811Z" fill="white"/>
<path fill-rule="evenodd" clip-rule="evenodd" d="M25.1288 37.5334H11.8723V53.4503H25.1286L25.1288 37.5334ZM15.2803 36.5225C15.2803 36.6282 15.3339 36.6811 15.4397 36.6811H21.562C21.6694 36.6811 21.7744 36.6282 21.7744 36.5225C21.7744 36.4151 21.6694 36.3622 21.562 36.3622H15.4397C15.3339 36.3624 15.2803 36.4153 15.2803 36.5225ZM26.1395 36.734V54.6743C26.1395 55.4207 25.5026 56.0599 24.7033 56.0599H12.2978C11.5536 56.0599 10.9145 55.4207 10.9145 54.6743V36.734C10.9145 35.9891 11.5536 35.3515 12.2978 35.3515H24.7033C25.5026 35.3515 26.1395 35.9891 26.1395 36.734Z" fill="#253645"/>
<path fill-rule="evenodd" clip-rule="evenodd" d="M18.5281 53.931C18.1013 53.931 17.8361 54.2498 17.8361 54.6743C17.8361 55.0475 18.1013 55.3664 18.5281 55.3664C18.9006 55.3664 19.2193 55.0475 19.2193 54.6743C19.2193 54.2497 18.9006 53.931 18.5281 53.931Z" fill="white"/>
<path fill-rule="evenodd" clip-rule="evenodd" d="M15.4397 36.6811H21.5621C21.6694 36.6811 21.7744 36.6282 21.7744 36.5225C21.7744 36.4151 21.6694 36.3622 21.5621 36.3622H15.4397C15.3339 36.3622 15.2803 36.4151 15.2803 36.5225C15.2803 36.6282 15.3339 36.6811 15.4397 36.6811Z" fill="white"/>
<path d="M25.1286 37.5334H11.8723V53.4503H25.1286V37.5334Z" fill="white"/>
</svg>
