<svg width="74" height="81" viewBox="0 0 74 81" fill="none" xmlns="http://www.w3.org/2000/svg">
<g clip-path="url(#clip0_19_337)">
<path d="M72.4583 11.8125H37V69.1875H72.4583V11.8125Z" fill="white"/>
<path d="M72.4583 70.875H41.625C40.7729 70.875 40.0833 70.1202 40.0833 69.1875C40.0833 68.2548 40.7729 67.5 41.625 67.5H70.9167V13.5H41.625C40.7729 13.5 40.0833 12.7452 40.0833 11.8125C40.0833 10.8798 40.7729 10.125 41.625 10.125H72.4583C73.3105 10.125 74 10.8798 74 11.8125V69.1875C74 70.1202 73.3105 70.875 72.4583 70.875Z" fill="#015CAB"/>
<path d="M43.1667 0L0 8.80435V72.1956L43.1667 81V0Z" fill="#015CAB"/>
<path opacity="0.2" d="M0 8.80437V9.64812L43.1667 0.84375V0L0 8.80437Z" fill="white"/>
<path opacity="0.1" d="M0 72.1956L43.1667 81V80.1562L0 71.3519V72.1956Z" fill="black"/>
<path d="M66.2917 18.5625H41.625V21.9375H66.2917V18.5625Z" fill="#015CAB"/>
<path d="M66.2917 28.6875H41.625V32.0625H66.2917V28.6875Z" fill="#015CAB"/>
<path d="M66.2917 38.8125H41.625V42.1875H66.2917V38.8125Z" fill="#015CAB"/>
<path d="M66.2917 48.9375H41.625V52.3125H66.2917V48.9375Z" fill="#015CAB"/>
<path d="M66.2917 59.0625H41.625V62.4375H66.2917V59.0625Z" fill="#015CAB"/>
<path d="M72.4583 70.875C73.3105 70.875 74 70.1202 74 69.1875V43.875L43.1667 10.125V70.875H72.4583Z" fill="url(#paint0_linear_19_337)"/>
<path d="M24.4739 55.793L27.7511 56.0492L34.5755 27.7923L29.6957 28.1738L26.13 42.8055C26.13 42.8055 24.3166 35.5842 22.5949 28.7289L17.3863 29.1362L13.9533 42.8055L10.7486 29.6551L6.0466 30.0228L12.0354 54.8205L15.7867 55.1138L20.0417 38.8125C20.0417 38.8125 22.4851 48.1741 24.4739 55.793Z" fill="white"/>
<path opacity="0.05" d="M43.1667 0L0 8.80435V72.1956L43.1667 81V0Z" fill="url(#paint1_linear_19_337)"/>
<path d="M72.4583 10.125H43.1667V0L0 8.80437V72.1956L43.1667 81V70.875H72.4583C73.3105 70.875 74 70.1202 74 69.1875V11.8125C74 10.8798 73.3105 10.125 72.4583 10.125Z" fill="url(#paint2_linear_19_337)"/>
</g>
<defs>
<linearGradient id="paint0_linear_19_337" x1="29.2917" y1="25.3125" x2="75.8574" y2="67.854" gradientUnits="userSpaceOnUse">
<stop stop-opacity="0.1"/>
<stop offset="1" stop-opacity="0"/>
</linearGradient>
<linearGradient id="paint1_linear_19_337" x1="-0.00251453" y1="40.4982" x2="43.1668" y2="40.4982" gradientUnits="userSpaceOnUse">
<stop stop-color="white"/>
<stop offset="1"/>
</linearGradient>
<linearGradient id="paint2_linear_19_337" x1="-4.82064" y1="20.1202" x2="79.7203" y2="56.1354" gradientUnits="userSpaceOnUse">
<stop stop-color="white" stop-opacity="0.2"/>
<stop offset="1" stop-color="white" stop-opacity="0"/>
</linearGradient>
<clipPath id="clip0_19_337">
<rect width="74" height="81" fill="white"/>
</clipPath>
</defs>
</svg>
